<svg xmlns="http://www.w3.org/2000/svg" viewBox="0 0 262.61 200.21"><defs><style>.cls-1{fill:#b3a7a2;}.cls-2{fill:#b7362e;}.cls-3{fill:#fefefc;}.cls-4{fill:none;stroke:#050006;stroke-miterlimit:10;stroke-width:4px;}</style></defs><g id="Capa_2" data-name="Capa 2"><g id="Capa_1-2" data-name="Capa 1"><path class="cls-1" d="M179.72,24.36c.06,3.65.13,7.29.17,10.93,0,2,.1,4.08-2.3,4.16s-2.86-1.37-3.07-4c-.3-3.79,1.36-8-1.4-11.32,1.7-7.5,1-8.77-4.71-8.77q-37.47,0-74.95.09c-6.52,0-6.52,0-6.89,8.22l.13,1.13q-.17.42-.36.81c-2.7,2.24-1,5.57-1.19,8.35s-.71,5.77-3.15,5.78c-2.74,0-1.58-3.42-1.9-5.46.35-2.1.71-4.21,1-6.31.39-2.51-.54-3.74-2.51-3.91,2.63-.44,3.49-2.32,3.2-5.51-.31-3.47-2.39-2.89-4.17-3.24s-4.33,1.22-4.71-2c-.48-4-.91-8.31.56-12.24C74-.24,75.36,0,76.43,0c32.75.09,65.5.09,98.25.43a76.3,76.3,0,0,0,8.69-.22c3.09-.32,4.44,1.45,4.85,4.93.08.65.13,1.32.17,2,.43,7.75.43,7.75-5.91,8.28C178.33,15.76,177.67,17.89,179.72,24.36Z"/><path class="cls-1" d="M243.69,198.87a1.73,1.73,0,0,1,.73.36c-1.24,1.49-2.8.84-4.2.84q-108.46.06-216.91,0c-1.71,0-3.49.49-5.1-.71l.15-.27c1.21,0,2.41.1,3.61.1q108.87,0,217.73-.07C241,199.15,242.36,199,243.69,198.87Z"/><path class="cls-1" d="M12.63,194.3c-2-2.22-2.07-5.18-2.07-8.23,0-27.39,0-54.79,0-82.18,0-4.31.31-8.44-4.54-8.68-.43,0-.84-.75-1.25-1.14.11-.13.21-.27.31-.41a15.32,15.32,0,0,0,6,1.64c.87,2.18.66,4.53.66,6.84q0,42,0,84.06c0,2.11-.34,4.34.87,6.21l.16,1.71Z"/><path class="cls-1" d="M1,31.68Q1,58.55.92,85.42a6.76,6.76,0,0,0,.55,1.82l0,.05.05,1.91-.14.15C.26,88.19.05,86.62.05,84.89Q.05,60,0,35.17C0,33.9-.23,32.44,1,31.68Z"/><path class="cls-1" d="M4.81,94.07,3,92.3l.23-.25,1.86,1.61C5,93.8,4.92,93.94,4.81,94.07Z"/><path class="cls-1" d="M15,197.34a2.34,2.34,0,0,1-1.63-2l.17-.2,1.6,2Z"/><path class="cls-1" d="M18.21,199.39l-2.39-1.1L16,198l2.33,1.09Z"/><path class="cls-1" d="M2.29,91.28C2,90.64,1.7,90,1.4,89.35l.14-.15L2.47,91Z"/><path class="cls-1" d="M2.47,28.46l-.89,1.42A1.28,1.28,0,0,1,2.47,28.46Z"/><path class="cls-1" d="M3,92.3l-.74-1L2.47,91a2.41,2.41,0,0,0,.64.12q.09.45.15.9Z"/><path class="cls-1" d="M1.39,30.37c-.1.36-.19.72-.29,1.08C1.2,31.09,1.29,30.73,1.39,30.37Z"/><path class="cls-1" d="M13.37,195.36l-.74-1.06.14-.18.77,1Z"/><path class="cls-1" d="M15.82,198.29l-.82-.95.14-.19L16,198Z"/><path class="cls-2" d="M86.57,23.72l1.7.54c-.43.57-.92.92-1.57.59C86.66,24.47,86.62,24.09,86.57,23.72Z"/><path class="cls-2" d="M11.07,95.3c2,.3,1.64,2.28,1.63,3.83q0,46.65-.09,93.28c-1.21-1.87-.87-4.1-.87-6.21q0-42,0-84.06C11.73,99.83,11.94,97.48,11.07,95.3Z"/><path class="cls-2" d="M1.49,87.29c2,.32,1.5,2.3,1.62,3.86A2.41,2.41,0,0,1,2.47,91L1.54,89.2C1.53,88.57,1.51,87.93,1.49,87.29Z"/><path class="cls-2" d="M32.41,118.74c.11-5.48,4-8.39,8.11-7.19,8.36,2.42,16.16,7.12,25,8,5.81.58,11.63,3,17.43,4.62,8.48,2.4,17.27,4.88,25.86,2.62,3.92-1,8-3.47,11.89-5.76,6.92-4.1,13.51-3.15,19.57,2.34,4,3.61,9.19,6.17,13.09,5.23,6.11-1.47,12.11-.65,18.09-1.58.11.16.22.33.32.51-4.61,2.38-9.75,1.61-14.38,3.83l-2,.07-.21-.15-.19.19-2.08.19c-2.23-.79-4.39-2.09-6.82-1.36l-.12-.24-.22,0c-.55-1-1.3-.83-2.07-.57l-.13-.35c-1-1.43-2.29-1.07-3.55-.9l-.23,0a8.93,8.93,0,0,1-3.8-4l-2-1.66a.46.46,0,0,0-.56-.18c-.38-.89-.93-1.29-1.74-1l-1.85-.06c-5.93-.9-10.83,2.83-15.92,5.6-3.44,1.87-6.81,3.72-10.74,3.09-10.17-1.63-20.26-3.83-30.34-6.23C61.46,121.22,50.54,117,39.43,113.6L38,113.22l0-.22v.22l-1.41.58c-.6-.15-.74.32-.79.91l-.78.77C33.6,115.87,33.58,118,32.41,118.74Z"/><path class="cls-2" d="M171.42,127c1.31-3.16,4.43-3,6.19-3.29,5.9-.88,11.38-3.82,17.25-4.55.26,0,.61.09.79-.08,4.89-4.66,11.27-3.58,16.66-6.78a22.17,22.17,0,0,1,15-3.11c3,.5,6.34,6.42,6.87,11.53.5,4.82,2,9.45,2.61,14.17,1,7.24,1.79,14.83-1.55,21.67-1.22,2.5-3.46,3.61-5.6,4.43-1.73.66-2.86-.36-2.71-2.86l1.93-1.21c2.7.2,3.62-2.12,4.33-4.75a33.26,33.26,0,0,0,.71-11.75c-.84-8.72-1.06-17.76-6.07-24.93,0-.27,0-.43-.27-.47,0-1.09-.36-1.7-1.27-1.69-.06-.28-.2-.39-.43-.31-1.52-2.5-3.52-1.9-5.45-1.19-2.94,1.08-5.82,2.39-8.76,3.45-13.16,4.77-26.3,9.69-39.9,12.23C171.64,127.35,171.53,127.18,171.42,127Z"/><path class="cls-2" d="M100.08,170.16c-1-8.84-7.39-9.41-12.19-10.75-12.5-3.49-25.35-2.82-38-1.91-4.36.32-8.84,1.22-13.29,1.76s-6.54-2.81-7.48-7c-2.38-10.71-1.14-21.35,1.44-31.8a1.5,1.5,0,0,1,1.6-1.17c0,.57.07,1.14.11,1.71l-.38,1.83c-2.69,7.81-2.56,15.89-1.44,24.05l.31,2.58c.41,3.83.65,8.07,5,7.56,17.37-2,34.73-3.95,52.15-1.06l1.84.6.6.67c.88,1.22,2,1.19,3.21,1.15l.1,0c.26.57.63.71,1.11.5a.72.72,0,0,1,.54.22,3.18,3.18,0,0,0,3.14,2.11l.07,0,.83.88v0c0,.66.31.95.83.93h0l1,1a1.69,1.69,0,0,1,.4.4c.11,1.85,1.44,2.38,2.48,3.38C102.47,168.21,101.06,168.62,100.08,170.16Z"/><path class="cls-2" d="M100.08,170.16c1-1.54,2.39-1.95,4-2.26-1-1-2.37-1.53-2.48-3.38,3.28,1.85,6.17-.55,9.18-1.37s6.49-1.43,8,2a32.13,32.13,0,0,0,9.42,12.53c2,1.62,4.75,3.37,5.22,7.15-1.65.81-3.79-.16-4.75,3.16-.62,2.12-3,1.61-4.55.75-1-.59-1.93-1.58-3.17-1.55,1.19-2,3.4-1.68,4.76-3.35,1-1.21,2.11-2.41.88-4.15-1-1.38-2.15-1.55-3.48-.2a19.83,19.83,0,0,1-7.2,5.06c-1.19-.55-2.66-.12-3.58-1.61,3.33-.11,6-2.21,8.45-4.65.94-.93,1.8-2.22.94-3.82-1-1.77-2.31-1.27-3.5-.41-2.85,2-5.65,4.16-8.47,6.25l-1.66-3.17c2.32-1.5,5.06-1.85,7.09-4.19,1.34-1.54,2.57-3.23,1.78-5.52-.86-2.46-2.69-2.13-4.46-1.58-2.44.75-4.76,2.16-7.14,2.83-3.42,1-3.4,3.2-2.69,6.37l-.86.32A8.46,8.46,0,0,1,100.08,170.16Z"/><path class="cls-2" d="M121,187.2c1.24,0,2.13,1,3.17,1.55,1.54.86,3.93,1.37,4.55-.75,1-3.32,3.1-2.35,4.75-3.16,1.36,2.4,2.81.45,4.23.12a1.92,1.92,0,0,0,2.18-1.64c.51-2.64,1.9-1.38,3.06-1.23a19.83,19.83,0,0,0,7.7.93c.72.26,1.38.27,1.76-.73l.06-.07c.48-.08.74-.43.74-1.05v0c1.1-3.66,3.26-3.11,5.53-2.15-1.48,4.09-3.73,6.61-7.63,6.1-7-.9-13.59,1.52-19.79,5.05-5.6,3.18-10.25.13-15.22-1.85-5.18-2.07-8.93-6.62-12.76-11.08l.57-.72,4.25.61c.55,1.06,1.1,2.11,1.66,3.16.26,1.8,1.83,1.6,2.58,2.64.92,1.49,2.39,1.06,3.58,1.61C116.69,188.09,119,187.25,121,187.2Z"/><path class="cls-2" d="M223.71,158.05a2.22,2.22,0,0,1-2.11,1.1q-18.69,0-37.4-.09a11.39,11.39,0,0,1-2.33-.54c-.24-.53-.49-1.06-.74-1.59l1.37-.05c11.7,0,23.4,0,35.1.05C219.65,157,221.86,156.13,223.71,158.05Z"/><path class="cls-2" d="M158.67,179c-2.27-1-4.43-1.51-5.53,2.15-.16-2.9-2.12-3.08-3.72-3.7-4.89-1.89-8.79-5.87-12.87-9.47-.68-.6-1.63-1.74-.8-2.91s1.75,0,2.36.72c2.1,2.58,4.74,4,7.37,5.43a9,9,0,0,0,5.12,2.88.83.83,0,0,0,.64.34c.91,2.33,2.78,1.33,4.2,1.87l0,0c.4.72.85.69,1.33.13l.29.33.39,0,2.9-.57-1.05,2.71A1.06,1.06,0,0,0,158.67,179Z"/><path class="cls-2" d="M223.71,158.05c-1.85-1.92-4.06-1.1-6.11-1.12-11.7-.09-23.4-.05-35.1-.05,3.74-2.14,7.88-.15,11.66-1.81l1.29-.08,2.73.07h12.57l6.65.16c3.72,1.57,7.78-.38,11.45,1.73l-1.93,1.21Z"/><path class="cls-2" d="M159.26,178.89l1.05-2.71,0-.06c1.1-1.34,1.49-2.6-.27-3.59l-.12-.07c.33-2.36,1.72-1.74,3-1.81,1.75-.09,2.93-1.44,3.26-3.57.3-1.94,0-3.6-2-3.73l0,0-.57-3.3,2.16.15c.63,1,1.56.51,2.35.67.64,4.48.24,8.51-3.07,11.32-1.3,1.11-1.34,3.16-2.17,4.58S161,179.6,159.26,178.89Z"/><ellipse class="cls-2" cx="99.78" cy="98.72" rx="28.64" ry="0.31"/><path class="cls-2" d="M168.16,160.89c-.79-.16-1.72.36-2.35-.67a25.77,25.77,0,0,1,15.32-3.29c.25.53.5,1.06.74,1.59C177.13,157.87,172.76,160.38,168.16,160.89Z"/><path class="cls-2" d="M142.06,98.29c3,0,6,0,9,0,.8,0,1.73.16,1.71,1.46s-1,1.34-1.77,1.4C147.84,101.4,145.32,98,142.06,98.29Z"/><path class="cls-2" d="M123.69,98.45h13l0,.4H123.85Z"/><path class="cls-2" d="M68.32,98.45h4.21l0,.4H68.45Z"/><path class="cls-2" d="M262.57,36.35c0-7.42-3.73-12-9.89-12q-36.48-.06-73,0c.06,3.65.13,7.29.17,10.93,0,2,.1,4.08-2.3,4.16s-2.86-1.37-3.07-4c-.3-3.79,1.36-8-1.4-11.32l-84.85.08c-.43.57-.92.92-1.57.59q-.17.42-.36.81h0c-2.7,2.24-1,5.57-1.19,8.35s-.71,5.77-3.15,5.78c-2.74,0-1.58-3.42-1.9-5.46.35-2.1.71-4.21,1-6.31.39-2.51-.54-3.74-2.51-3.91-22.4,0-44.81.1-67.22,0-3.53,0-6.59.86-8.94,4.32l-.89,1.42a.92.92,0,0,1-.19.49c-.1.36-.19.72-.29,1.08L1,31.68Q1,58.55.92,85.42a7.11,7.11,0,0,0,.54,1.82q0-24.22.05-48.43,0,24.21-.05,48.43l0,.05c2,.32,1.5,2.3,1.62,3.86q.09.45.15.9l1.86,1.61a15.32,15.32,0,0,0,6,1.64c2,.3,1.64,2.28,1.63,3.83q0,46.65-.09,93.28c.06.57.11,1.14.16,1.71l.77,1,1.6,2L16,198l2.33,1.09c1.21,0,2.41.1,3.61.1q108.87,0,217.73-.07c1.33,0,2.66-.18,4-.28a1.73,1.73,0,0,1,.73.36c5.54-2.36,7.32-5.35,7.36-12.42q0-7.25,0-14.49,0-35.7,0-71.41c0-2.35-.55-4.9,2.51-5.65,5.9-1.46,8.23-5.34,8.25-13Q262.64,59.33,262.57,36.35Zm-111.49,62c.8,0,1.73.16,1.71,1.46s-1,1.34-1.77,1.4c-2.94.23-5.33-2.67-8.25-2.87C145.54,98.29,148.31,98.28,151.08,98.3Zm-14.42.15,0,.4H123.85l-.16-.4ZM120,98.51v.43H79.53v-.43Zm-47.5-.06,0,.4H68.45l-.13-.4Zm-31.16-.06c-.56,1.31-1.3.76-2.94,0Zm-12.19,0a2.56,2.56,0,0,1,.49.42A2.33,2.33,0,0,1,29,99c-.05,0-.11-.34-.16-.52C29,98.44,29.1,98.34,29.18,98.39Zm206.05,58.19c-1.22,2.5-3.46,3.61-5.6,4.43-1.73.66-2.86-.36-2.71-2.86l-3.21-.1a2.22,2.22,0,0,1-2.11,1.1q-18.69,0-37.4-.09a11,11,0,0,1-2.34-.55c-4.73-.64-9.1,1.87-13.7,2.38.64,4.48.24,8.51-3.07,11.32-1.3,1.11-1.34,3.16-2.17,4.58s-1.92,2.81-3.66,2.1a1.06,1.06,0,0,0-.59.15c-1.48,4.09-3.73,6.61-7.63,6.1-7-.9-13.59,1.52-19.79,5.05-5.6,3.18-10.25.13-15.22-1.85-5.18-2.07-8.93-6.62-12.76-11.07l-1.46-1.89a8.46,8.46,0,0,1-1.73-5.22c-1-8.84-7.39-9.41-12.19-10.75-12.5-3.49-25.35-2.82-38-1.91-4.36.32-8.84,1.22-13.29,1.76s-6.54-2.81-7.48-7c-2.38-10.71-1.14-21.35,1.44-31.8a1.5,1.5,0,0,1,1.6-1.17.47.47,0,0,0,.28-.53c.11-5.49,4-8.4,8.11-7.2,8.36,2.42,16.16,7.12,25,8,5.81.58,11.63,3,17.43,4.62,8.48,2.4,17.27,4.88,25.86,2.62,3.92-1,8-3.47,11.89-5.76,6.92-4.1,13.51-3.15,19.57,2.34,4,3.61,9.19,6.17,13.09,5.23,6.11-1.47,12.11-.65,18.09-1.58,1.31-3.16,4.43-3,6.19-3.29,5.9-.88,11.38-3.82,17.25-4.55.26,0,.61.09.79-.08,4.89-4.66,11.27-3.58,16.66-6.78a22.17,22.17,0,0,1,15-3.11c3,.5,6.34,6.42,6.87,11.53.5,4.82,2,9.45,2.61,14.17C237.78,142.15,238.57,149.74,235.23,156.58Z"/><path class="cls-2" d="M38.43,98.39h2.94C40.81,99.7,40.07,99.15,38.43,98.39Z"/><path class="cls-2" d="M101.81,175.38l.86-.32,1.17,1.48-.57.72C102.78,176.64,102.29,176,101.81,175.38Z"/><path class="cls-2" d="M29.67,98.81A2.33,2.33,0,0,1,29,99c-.05,0-.11-.34-.16-.52.11,0,.24-.14.32-.09A2.56,2.56,0,0,1,29.67,98.81Z"/><path class="cls-2" d="M131.68,129.1c-1.8.12-2.84,1.49-3.54,3.39l-.27.13,0,.35c-1.34,1.06-1.24,3.2-2.19,4.56l-.22.1.06.27-.51,1.77c-.54.16-.61.61-.46,1.2l-.45,1.41c-.27.1-.36.31-.27.65-1,2.64-2.14,5.23-1.82,8.37.15,1.49,0,3.08,1.46,3.66a2.64,2.64,0,0,0,3.26-1.19,18.32,18.32,0,0,0,3-7.4c1.38-7.1,3.36-8.17,8.29-4.47,8.42,6.33,17.45,11.31,25.63,18.17l.57,3.3c-9.07-6.3-18.23-12.43-27.17-19-3.15-2.31-4.54-1.53-5.48,2.48-.51,2.2-1,4.42-1.75,6.53-1.16,3.48-3.46,5.71-6.31,4.54-2.46-1-4-3.64-3.63-7.67a45.73,45.73,0,0,1,8.56-23.1c2.28-1.74,5.36-.31,7.46-2.84a8.93,8.93,0,0,0,3.8,4C137,128.65,134.26,127.41,131.68,129.1Z"/><path class="cls-2" d="M140.06,129.15a2.33,2.33,0,0,0-.13-.87c1.26-.17,2.55-.53,3.55.9Z"/><path class="cls-2" d="M95.32,159.14c1.28.18,2.63.17,3.14,2.11A3.18,3.18,0,0,1,95.32,159.14Z"/><path class="cls-2" d="M91.29,156.77c.76.53,1.87.3,2.28,1.6-1.17,0-2.33.07-3.21-1.15Z"/><path class="cls-2" d="M93.67,158.42l1.11.5C94.3,159.13,93.93,159,93.67,158.42Z"/><path class="cls-2" d="M98.53,161.28c.54-.08.81.22.83.88Z"/><path class="cls-2" d="M99.37,162.19c.5,0,.77.33.83.93C99.68,163.14,99.39,162.85,99.37,162.19Z"/><path class="cls-2" d="M100.21,163.13c.56,0,.85.35,1,1Z"/><path class="cls-3" d="M103.84,176.54l-1.17-1.48c-.71-3.17-.73-5.4,2.69-6.37,2.38-.67,4.7-2.08,7.14-2.83,1.77-.55,3.6-.88,4.46,1.58.79,2.29-.44,4-1.78,5.52-2,2.34-4.77,2.69-7.09,4.19Z"/><path class="cls-3" d="M112.33,183c-.75-1-2.32-.84-2.58-2.64,2.82-2.08,5.62-4.21,8.47-6.24,1.19-.86,2.54-1.36,3.5.41.86,1.6,0,2.89-.94,3.82C118.3,180.74,115.66,182.84,112.33,183Z"/><path class="cls-2" d="M137.65,185c.85-1.69,1.18-3-.67-4.33-1.64-1.22-5.09-3.08-4-4.82,1.78-2.78,3.68,1.37,5.49,2.52,1.56,1,3.72,1.11,4.4,3.76-1.16-.15-2.55-1.41-3.06,1.23A1.92,1.92,0,0,1,137.65,185Z"/><path class="cls-2" d="M150.59,183l1.76-.73C152,183.29,151.31,183.28,150.59,183Z"/><path class="cls-2" d="M152.41,182.22l.74-1.05C153.15,181.79,152.89,182.14,152.41,182.22Z"/><path class="cls-2" d="M160,172.46l-2.75-1.29c-3.49-2.34-7-4.65-10.46-7a52.22,52.22,0,0,1-4.8-3.52c-.77-.66-2.16-1.49-1.18-3,.74-1.17,1.69-.07,2.49.45l14.47,9.37a15.48,15.48,0,0,0,1.42.91c1.46.73,3,1.85,4.52.52,1.68-1.48.78-3.59.53-5.49,2,.13,2.32,1.79,2,3.73-.33,2.13-1.51,3.48-3.26,3.57C161.67,170.72,160.28,170.1,160,172.46Z"/><path class="cls-2" d="M160.34,176.12l-.27-3.59C161.83,173.52,161.44,174.78,160.34,176.12Z"/><line class="cls-4" x1="12.7" y1="99.13" x2="250.83" y2="96.2"/></g></g></svg>